%TF.GenerationSoftware,KiCad,Pcbnew,9.0.7*%
%TF.CreationDate,2026-04-15T21:18:53+01:00*%
%TF.ProjectId,CMT2119A,434d5432-3131-4394-912e-6b696361645f,rev?*%
%TF.SameCoordinates,Original*%
%TF.FileFunction,Copper,L1,Top*%
%TF.FilePolarity,Positive*%
%FSLAX46Y46*%
G04 Gerber Fmt 4.6, Leading zero omitted, Abs format (unit mm)*
G04 Created by KiCad (PCBNEW 9.0.7) date 2026-04-15 21:18:53*
%MOMM*%
%LPD*%
G01*
G04 APERTURE LIST*
G04 Aperture macros list*
%AMRoundRect*
0 Rectangle with rounded corners*
0 $1 Rounding radius*
0 $2 $3 $4 $5 $6 $7 $8 $9 X,Y pos of 4 corners*
0 Add a 4 corners polygon primitive as box body*
4,1,4,$2,$3,$4,$5,$6,$7,$8,$9,$2,$3,0*
0 Add four circle primitives for the rounded corners*
1,1,$1+$1,$2,$3*
1,1,$1+$1,$4,$5*
1,1,$1+$1,$6,$7*
1,1,$1+$1,$8,$9*
0 Add four rect primitives between the rounded corners*
20,1,$1+$1,$2,$3,$4,$5,0*
20,1,$1+$1,$4,$5,$6,$7,0*
20,1,$1+$1,$6,$7,$8,$9,0*
20,1,$1+$1,$8,$9,$2,$3,0*%
G04 Aperture macros list end*
%TA.AperFunction,Conductor*%
%ADD10C,0.200000*%
%TD*%
%TA.AperFunction,Conductor*%
%ADD11C,0.500000*%
%TD*%
%TA.AperFunction,ComponentPad*%
%ADD12R,1.700000X1.700000*%
%TD*%
%TA.AperFunction,ComponentPad*%
%ADD13C,1.700000*%
%TD*%
%TA.AperFunction,SMDPad,CuDef*%
%ADD14RoundRect,0.237500X-0.300000X-0.237500X0.300000X-0.237500X0.300000X0.237500X-0.300000X0.237500X0*%
%TD*%
%TA.AperFunction,SMDPad,CuDef*%
%ADD15RoundRect,0.237500X0.250000X0.237500X-0.250000X0.237500X-0.250000X-0.237500X0.250000X-0.237500X0*%
%TD*%
%TA.AperFunction,SMDPad,CuDef*%
%ADD16RoundRect,0.237500X0.237500X-0.300000X0.237500X0.300000X-0.237500X0.300000X-0.237500X-0.300000X0*%
%TD*%
%TA.AperFunction,SMDPad,CuDef*%
%ADD17RoundRect,0.237500X0.300000X0.237500X-0.300000X0.237500X-0.300000X-0.237500X0.300000X-0.237500X0*%
%TD*%
%TA.AperFunction,SMDPad,CuDef*%
%ADD18RoundRect,0.150000X-0.512500X-0.150000X0.512500X-0.150000X0.512500X0.150000X-0.512500X0.150000X0*%
%TD*%
%TA.AperFunction,SMDPad,CuDef*%
%ADD19RoundRect,0.237500X-0.237500X0.287500X-0.237500X-0.287500X0.237500X-0.287500X0.237500X0.287500X0*%
%TD*%
%TA.AperFunction,SMDPad,CuDef*%
%ADD20RoundRect,0.237500X-0.287500X-0.237500X0.287500X-0.237500X0.287500X0.237500X-0.287500X0.237500X0*%
%TD*%
%TA.AperFunction,SMDPad,CuDef*%
%ADD21RoundRect,0.250000X0.450000X0.350000X-0.450000X0.350000X-0.450000X-0.350000X0.450000X-0.350000X0*%
%TD*%
%TA.AperFunction,SMDPad,CuDef*%
%ADD22RoundRect,0.237500X-0.250000X-0.237500X0.250000X-0.237500X0.250000X0.237500X-0.250000X0.237500X0*%
%TD*%
%TA.AperFunction,ViaPad*%
%ADD23C,0.600000*%
%TD*%
%TA.AperFunction,Conductor*%
%ADD24C,0.300000*%
%TD*%
G04 APERTURE END LIST*
D10*
%TO.N,GND*%
X157400000Y-95900000D02*
X157400000Y-95350000D01*
D11*
X157400000Y-94800000D02*
X157400000Y-95900000D01*
X147400000Y-97400000D02*
X149300000Y-97400000D01*
X150000000Y-91400000D02*
X151800000Y-91400000D01*
X155200000Y-92400000D02*
X156400000Y-92400000D01*
%TD*%
D12*
%TO.P,J1,1,Pin_1*%
%TO.N,VCC*%
X158100000Y-102200000D03*
D13*
%TO.P,J1,2,Pin_2*%
%TO.N,Net-(J1-Pin_2)*%
X155560000Y-102200000D03*
%TO.P,J1,3,Pin_3*%
%TO.N,Net-(IC1-CLK)*%
X153020000Y-102200000D03*
%TO.P,J1,4,Pin_4*%
%TO.N,Net-(IC1-DAT)*%
X150480000Y-102200000D03*
%TO.P,J1,5,Pin_5*%
%TO.N,GND*%
X147940000Y-102200000D03*
%TD*%
D14*
%TO.P,C1,1*%
%TO.N,Net-(X1-OUT)*%
X147237500Y-94900000D03*
%TO.P,C1,2*%
%TO.N,Net-(IC1-XTAL)*%
X148962500Y-94900000D03*
%TD*%
D15*
%TO.P,R2,1*%
%TO.N,VCC*%
X149112500Y-99700000D03*
%TO.P,R2,2*%
%TO.N,Net-(IC1-DAT)*%
X147287500Y-99700000D03*
%TD*%
D16*
%TO.P,C4,1*%
%TO.N,Net-(J1-Pin_2)*%
X157200000Y-97762500D03*
%TO.P,C4,2*%
%TO.N,GND*%
X157200000Y-96037500D03*
%TD*%
D14*
%TO.P,C3,1*%
%TO.N,Net-(IC1-OUT)*%
X153537500Y-97400000D03*
%TO.P,C3,2*%
%TO.N,Net-(C3-Pad2)*%
X155262500Y-97400000D03*
%TD*%
D17*
%TO.P,C2,1*%
%TO.N,VCC*%
X158162500Y-92400000D03*
%TO.P,C2,2*%
%TO.N,GND*%
X156437500Y-92400000D03*
%TD*%
D18*
%TO.P,IC1,1,XTAL*%
%TO.N,Net-(IC1-XTAL)*%
X149262500Y-96450000D03*
%TO.P,IC1,2,GND*%
%TO.N,GND*%
X149262500Y-97400000D03*
%TO.P,IC1,3,DAT*%
%TO.N,Net-(IC1-DAT)*%
X149262500Y-98350000D03*
%TO.P,IC1,4,CLK*%
%TO.N,Net-(IC1-CLK)*%
X151537500Y-98350000D03*
%TO.P,IC1,5,OUT*%
%TO.N,Net-(IC1-OUT)*%
X151537500Y-97400000D03*
%TO.P,IC1,6,VDD*%
%TO.N,VCC*%
X151537500Y-96450000D03*
%TD*%
D19*
%TO.P,L1,1,1*%
%TO.N,VCC*%
X153500000Y-93325000D03*
%TO.P,L1,2,2*%
%TO.N,Net-(IC1-OUT)*%
X153500000Y-95075000D03*
%TD*%
D20*
%TO.P,L2,1,1*%
%TO.N,Net-(C3-Pad2)*%
X155125000Y-99700000D03*
%TO.P,L2,2,2*%
%TO.N,Net-(J1-Pin_2)*%
X156875000Y-99700000D03*
%TD*%
D21*
%TO.P,X1,1,TUNE*%
%TO.N,GND*%
X149900000Y-91450000D03*
%TO.P,X1,2,GND*%
X147700000Y-91450000D03*
%TO.P,X1,3,OUT*%
%TO.N,Net-(X1-OUT)*%
X147700000Y-93150000D03*
%TO.P,X1,4,VCC*%
%TO.N,VCC*%
X149900000Y-93150000D03*
%TD*%
D22*
%TO.P,R1,1*%
%TO.N,VCC*%
X150687500Y-99700000D03*
%TO.P,R1,2*%
%TO.N,Net-(IC1-CLK)*%
X152512500Y-99700000D03*
%TD*%
D23*
%TO.N,GND*%
X147500000Y-97400000D03*
X157400000Y-94800000D03*
X151700000Y-91400000D03*
X155200000Y-92400000D03*
%TD*%
D11*
%TO.N,Net-(X1-OUT)*%
X147700000Y-93150000D02*
X147300000Y-93550000D01*
X147300000Y-94837500D02*
X147237500Y-94900000D01*
X147300000Y-93550000D02*
X147300000Y-94837500D01*
%TO.N,Net-(IC1-XTAL)*%
X148962500Y-96150000D02*
X149262500Y-96450000D01*
X148962500Y-94900000D02*
X148962500Y-96150000D01*
D24*
%TO.N,VCC*%
X150524000Y-96500000D02*
X150524000Y-99736500D01*
D11*
X151537500Y-93150000D02*
X151537500Y-96450000D01*
X158200000Y-91200000D02*
X153500000Y-91200000D01*
X149112500Y-99900000D02*
X150687500Y-99900000D01*
X158200000Y-92400000D02*
X158200000Y-91200000D01*
X158162500Y-92400000D02*
X158200000Y-92400000D01*
X158100000Y-102200000D02*
X158326000Y-101974000D01*
X158326000Y-92563500D02*
X158162500Y-92400000D01*
D24*
X153400000Y-93425000D02*
X153500000Y-93325000D01*
X150524000Y-99736500D02*
X150687500Y-99900000D01*
X151537500Y-96450000D02*
X151487500Y-96500000D01*
X151487500Y-96500000D02*
X150524000Y-96500000D01*
D11*
X153500000Y-93150000D02*
X149900000Y-93150000D01*
X153500000Y-93325000D02*
X153500000Y-91200000D01*
D24*
X149900000Y-93150000D02*
X151537500Y-93150000D01*
X153500000Y-93325000D02*
X153500000Y-93150000D01*
D11*
X158326000Y-101974000D02*
X158326000Y-92563500D01*
%TO.N,GND*%
X147700000Y-91450000D02*
X149900000Y-91450000D01*
%TO.N,Net-(C3-Pad2)*%
X155262500Y-99562500D02*
X155125000Y-99700000D01*
X155262500Y-97400000D02*
X155262500Y-99562500D01*
%TO.N,Net-(IC1-OUT)*%
X153537500Y-97400000D02*
X151537500Y-97400000D01*
X153500000Y-95175000D02*
X153500000Y-97362500D01*
X153500000Y-97362500D02*
X153537500Y-97400000D01*
%TO.N,Net-(IC1-DAT)*%
X150500000Y-100900000D02*
X150500000Y-102200000D01*
X147287500Y-98350000D02*
X147287500Y-99700000D01*
X150500000Y-102200000D02*
X150480000Y-102200000D01*
X149262500Y-98350000D02*
X147287500Y-98350000D01*
X147287500Y-99700000D02*
X147287500Y-100900000D01*
X147287500Y-100900000D02*
X150500000Y-100900000D01*
%TO.N,Net-(IC1-CLK)*%
X153000000Y-102180000D02*
X153020000Y-102200000D01*
X151537500Y-98350000D02*
X153100000Y-98350000D01*
X153100000Y-98350000D02*
X153100000Y-102200000D01*
X153100000Y-102200000D02*
X153020000Y-102200000D01*
%TO.N,Net-(J1-Pin_2)*%
X156875000Y-98287500D02*
X157400000Y-97762500D01*
X155560000Y-100800000D02*
X156900000Y-100800000D01*
X156900000Y-100800000D02*
X156900000Y-99700000D01*
X156900000Y-99700000D02*
X156875000Y-99700000D01*
X156875000Y-99700000D02*
X156875000Y-98287500D01*
X155560000Y-102200000D02*
X155560000Y-100800000D01*
%TD*%
M02*
