%TF.GenerationSoftware,KiCad,Pcbnew,9.0.7*%
%TF.CreationDate,2026-04-15T21:18:54+01:00*%
%TF.ProjectId,CMT2119A,434d5432-3131-4394-912e-6b696361645f,rev?*%
%TF.SameCoordinates,Original*%
%TF.FileFunction,Copper,L2,Bot*%
%TF.FilePolarity,Positive*%
%FSLAX46Y46*%
G04 Gerber Fmt 4.6, Leading zero omitted, Abs format (unit mm)*
G04 Created by KiCad (PCBNEW 9.0.7) date 2026-04-15 21:18:54*
%MOMM*%
%LPD*%
G01*
G04 APERTURE LIST*
%TA.AperFunction,ComponentPad*%
%ADD10R,1.700000X1.700000*%
%TD*%
%TA.AperFunction,ComponentPad*%
%ADD11C,1.700000*%
%TD*%
%TA.AperFunction,ViaPad*%
%ADD12C,0.600000*%
%TD*%
G04 APERTURE END LIST*
D10*
%TO.P,J1,1,Pin_1*%
%TO.N,VCC*%
X158100000Y-102200000D03*
D11*
%TO.P,J1,2,Pin_2*%
%TO.N,Net-(J1-Pin_2)*%
X155560000Y-102200000D03*
%TO.P,J1,3,Pin_3*%
%TO.N,Net-(IC1-CLK)*%
X153020000Y-102200000D03*
%TO.P,J1,4,Pin_4*%
%TO.N,Net-(IC1-DAT)*%
X150480000Y-102200000D03*
%TO.P,J1,5,Pin_5*%
%TO.N,GND*%
X147940000Y-102200000D03*
%TD*%
D12*
%TO.N,GND*%
X147500000Y-97400000D03*
X157400000Y-94800000D03*
X151700000Y-91400000D03*
X155200000Y-92400000D03*
%TD*%
%TA.AperFunction,Conductor*%
%TO.N,GND*%
G36*
X159442539Y-90920185D02*
G01*
X159488294Y-90972989D01*
X159499500Y-91024500D01*
X159499500Y-100888428D01*
X159479815Y-100955467D01*
X159427011Y-101001222D01*
X159357853Y-101011166D01*
X159301189Y-100987695D01*
X159258138Y-100955467D01*
X159192331Y-100906204D01*
X159192329Y-100906203D01*
X159192328Y-100906202D01*
X159057482Y-100855908D01*
X159057483Y-100855908D01*
X158997883Y-100849501D01*
X158997881Y-100849500D01*
X158997873Y-100849500D01*
X158997864Y-100849500D01*
X157202129Y-100849500D01*
X157202123Y-100849501D01*
X157142516Y-100855908D01*
X157007671Y-100906202D01*
X157007664Y-100906206D01*
X156892455Y-100992452D01*
X156892452Y-100992455D01*
X156806206Y-101107664D01*
X156806203Y-101107669D01*
X156757189Y-101239083D01*
X156715317Y-101295016D01*
X156649853Y-101319433D01*
X156581580Y-101304581D01*
X156553326Y-101283430D01*
X156439786Y-101169890D01*
X156267820Y-101044951D01*
X156078414Y-100948444D01*
X156078413Y-100948443D01*
X156078412Y-100948443D01*
X155876243Y-100882754D01*
X155876241Y-100882753D01*
X155876240Y-100882753D01*
X155714957Y-100857208D01*
X155666287Y-100849500D01*
X155453713Y-100849500D01*
X155405042Y-100857208D01*
X155243760Y-100882753D01*
X155041585Y-100948444D01*
X154852179Y-101044951D01*
X154680213Y-101169890D01*
X154529890Y-101320213D01*
X154404949Y-101492182D01*
X154400484Y-101500946D01*
X154352509Y-101551742D01*
X154284688Y-101568536D01*
X154218553Y-101545998D01*
X154179516Y-101500946D01*
X154175050Y-101492182D01*
X154050109Y-101320213D01*
X153899786Y-101169890D01*
X153727820Y-101044951D01*
X153538414Y-100948444D01*
X153538413Y-100948443D01*
X153538412Y-100948443D01*
X153336243Y-100882754D01*
X153336241Y-100882753D01*
X153336240Y-100882753D01*
X153174957Y-100857208D01*
X153126287Y-100849500D01*
X152913713Y-100849500D01*
X152865042Y-100857208D01*
X152703760Y-100882753D01*
X152501585Y-100948444D01*
X152312179Y-101044951D01*
X152140213Y-101169890D01*
X151989890Y-101320213D01*
X151864949Y-101492182D01*
X151860484Y-101500946D01*
X151812509Y-101551742D01*
X151744688Y-101568536D01*
X151678553Y-101545998D01*
X151639516Y-101500946D01*
X151635050Y-101492182D01*
X151510109Y-101320213D01*
X151359786Y-101169890D01*
X151187820Y-101044951D01*
X150998414Y-100948444D01*
X150998413Y-100948443D01*
X150998412Y-100948443D01*
X150796243Y-100882754D01*
X150796241Y-100882753D01*
X150796240Y-100882753D01*
X150634957Y-100857208D01*
X150586287Y-100849500D01*
X150373713Y-100849500D01*
X150325042Y-100857208D01*
X150163760Y-100882753D01*
X149961585Y-100948444D01*
X149772179Y-101044951D01*
X149600213Y-101169890D01*
X149449890Y-101320213D01*
X149324949Y-101492182D01*
X149320202Y-101501499D01*
X149272227Y-101552293D01*
X149204405Y-101569087D01*
X149138271Y-101546548D01*
X149099234Y-101501495D01*
X149094626Y-101492452D01*
X149055270Y-101438282D01*
X149055269Y-101438282D01*
X148422962Y-102070589D01*
X148405925Y-102007007D01*
X148340099Y-101892993D01*
X148247007Y-101799901D01*
X148132993Y-101734075D01*
X148069409Y-101717037D01*
X148701716Y-101084728D01*
X148647550Y-101045375D01*
X148458217Y-100948904D01*
X148256129Y-100883242D01*
X148046246Y-100850000D01*
X147833754Y-100850000D01*
X147623872Y-100883242D01*
X147623869Y-100883242D01*
X147421782Y-100948904D01*
X147232439Y-101045380D01*
X147178282Y-101084727D01*
X147178282Y-101084728D01*
X147810591Y-101717037D01*
X147747007Y-101734075D01*
X147632993Y-101799901D01*
X147539901Y-101892993D01*
X147474075Y-102007007D01*
X147457037Y-102070591D01*
X146824728Y-101438282D01*
X146824727Y-101438282D01*
X146785380Y-101492440D01*
X146785378Y-101492443D01*
X146734984Y-101591346D01*
X146687010Y-101642141D01*
X146619188Y-101658936D01*
X146553054Y-101636398D01*
X146509603Y-101581683D01*
X146500500Y-101535050D01*
X146500500Y-91024500D01*
X146520185Y-90957461D01*
X146572989Y-90911706D01*
X146624500Y-90900500D01*
X159375500Y-90900500D01*
X159442539Y-90920185D01*
G37*
%TD.AperFunction*%
%TD*%
M02*
