%TF.GenerationSoftware,KiCad,Pcbnew,9.0.7*%
%TF.CreationDate,2026-04-15T21:18:54+01:00*%
%TF.ProjectId,CMT2119A,434d5432-3131-4394-912e-6b696361645f,rev?*%
%TF.SameCoordinates,Original*%
%TF.FileFunction,Legend,Bot*%
%TF.FilePolarity,Positive*%
%FSLAX46Y46*%
G04 Gerber Fmt 4.6, Leading zero omitted, Abs format (unit mm)*
G04 Created by KiCad (PCBNEW 9.0.7) date 2026-04-15 21:18:54*
%MOMM*%
%LPD*%
G01*
G04 APERTURE LIST*
%ADD10C,0.150000*%
%ADD11C,0.200000*%
%ADD12C,0.187500*%
G04 APERTURE END LIST*
D10*
X148429887Y-100286128D02*
X148501316Y-100250414D01*
X148501316Y-100250414D02*
X148608458Y-100250414D01*
X148608458Y-100250414D02*
X148715601Y-100286128D01*
X148715601Y-100286128D02*
X148787030Y-100357557D01*
X148787030Y-100357557D02*
X148822744Y-100428985D01*
X148822744Y-100428985D02*
X148858458Y-100571842D01*
X148858458Y-100571842D02*
X148858458Y-100678985D01*
X148858458Y-100678985D02*
X148822744Y-100821842D01*
X148822744Y-100821842D02*
X148787030Y-100893271D01*
X148787030Y-100893271D02*
X148715601Y-100964700D01*
X148715601Y-100964700D02*
X148608458Y-101000414D01*
X148608458Y-101000414D02*
X148537030Y-101000414D01*
X148537030Y-101000414D02*
X148429887Y-100964700D01*
X148429887Y-100964700D02*
X148394173Y-100928985D01*
X148394173Y-100928985D02*
X148394173Y-100678985D01*
X148394173Y-100678985D02*
X148537030Y-100678985D01*
X148072744Y-101000414D02*
X148072744Y-100250414D01*
X148072744Y-100250414D02*
X147644173Y-101000414D01*
X147644173Y-101000414D02*
X147644173Y-100250414D01*
X147287030Y-101000414D02*
X147287030Y-100250414D01*
X147287030Y-100250414D02*
X147108459Y-100250414D01*
X147108459Y-100250414D02*
X147001316Y-100286128D01*
X147001316Y-100286128D02*
X146929887Y-100357557D01*
X146929887Y-100357557D02*
X146894173Y-100428985D01*
X146894173Y-100428985D02*
X146858459Y-100571842D01*
X146858459Y-100571842D02*
X146858459Y-100678985D01*
X146858459Y-100678985D02*
X146894173Y-100821842D01*
X146894173Y-100821842D02*
X146929887Y-100893271D01*
X146929887Y-100893271D02*
X147001316Y-100964700D01*
X147001316Y-100964700D02*
X147108459Y-101000414D01*
X147108459Y-101000414D02*
X147287030Y-101000414D01*
X151322744Y-101000414D02*
X151322744Y-100250414D01*
X151322744Y-100250414D02*
X151144173Y-100250414D01*
X151144173Y-100250414D02*
X151037030Y-100286128D01*
X151037030Y-100286128D02*
X150965601Y-100357557D01*
X150965601Y-100357557D02*
X150929887Y-100428985D01*
X150929887Y-100428985D02*
X150894173Y-100571842D01*
X150894173Y-100571842D02*
X150894173Y-100678985D01*
X150894173Y-100678985D02*
X150929887Y-100821842D01*
X150929887Y-100821842D02*
X150965601Y-100893271D01*
X150965601Y-100893271D02*
X151037030Y-100964700D01*
X151037030Y-100964700D02*
X151144173Y-101000414D01*
X151144173Y-101000414D02*
X151322744Y-101000414D01*
X150608458Y-100786128D02*
X150251316Y-100786128D01*
X150679887Y-101000414D02*
X150429887Y-100250414D01*
X150429887Y-100250414D02*
X150179887Y-101000414D01*
X150037030Y-100250414D02*
X149608459Y-100250414D01*
X149822744Y-101000414D02*
X149822744Y-100250414D01*
X156279887Y-100250414D02*
X156137030Y-100250414D01*
X156137030Y-100250414D02*
X156065601Y-100286128D01*
X156065601Y-100286128D02*
X155994173Y-100357557D01*
X155994173Y-100357557D02*
X155958458Y-100500414D01*
X155958458Y-100500414D02*
X155958458Y-100750414D01*
X155958458Y-100750414D02*
X155994173Y-100893271D01*
X155994173Y-100893271D02*
X156065601Y-100964700D01*
X156065601Y-100964700D02*
X156137030Y-101000414D01*
X156137030Y-101000414D02*
X156279887Y-101000414D01*
X156279887Y-101000414D02*
X156351316Y-100964700D01*
X156351316Y-100964700D02*
X156422744Y-100893271D01*
X156422744Y-100893271D02*
X156458458Y-100750414D01*
X156458458Y-100750414D02*
X156458458Y-100500414D01*
X156458458Y-100500414D02*
X156422744Y-100357557D01*
X156422744Y-100357557D02*
X156351316Y-100286128D01*
X156351316Y-100286128D02*
X156279887Y-100250414D01*
X155637030Y-100250414D02*
X155637030Y-100857557D01*
X155637030Y-100857557D02*
X155601316Y-100928985D01*
X155601316Y-100928985D02*
X155565602Y-100964700D01*
X155565602Y-100964700D02*
X155494173Y-101000414D01*
X155494173Y-101000414D02*
X155351316Y-101000414D01*
X155351316Y-101000414D02*
X155279887Y-100964700D01*
X155279887Y-100964700D02*
X155244173Y-100928985D01*
X155244173Y-100928985D02*
X155208459Y-100857557D01*
X155208459Y-100857557D02*
X155208459Y-100250414D01*
X154958459Y-100250414D02*
X154529888Y-100250414D01*
X154744173Y-101000414D02*
X154744173Y-100250414D01*
D11*
X153976190Y-92862036D02*
X154023809Y-92909656D01*
X154023809Y-92909656D02*
X154166666Y-92957275D01*
X154166666Y-92957275D02*
X154261904Y-92957275D01*
X154261904Y-92957275D02*
X154404761Y-92909656D01*
X154404761Y-92909656D02*
X154499999Y-92814417D01*
X154499999Y-92814417D02*
X154547618Y-92719179D01*
X154547618Y-92719179D02*
X154595237Y-92528703D01*
X154595237Y-92528703D02*
X154595237Y-92385846D01*
X154595237Y-92385846D02*
X154547618Y-92195370D01*
X154547618Y-92195370D02*
X154499999Y-92100132D01*
X154499999Y-92100132D02*
X154404761Y-92004894D01*
X154404761Y-92004894D02*
X154261904Y-91957275D01*
X154261904Y-91957275D02*
X154166666Y-91957275D01*
X154166666Y-91957275D02*
X154023809Y-92004894D01*
X154023809Y-92004894D02*
X153976190Y-92052513D01*
X153547618Y-92957275D02*
X153547618Y-91957275D01*
X153547618Y-91957275D02*
X153214285Y-92671560D01*
X153214285Y-92671560D02*
X152880952Y-91957275D01*
X152880952Y-91957275D02*
X152880952Y-92957275D01*
X152547618Y-91957275D02*
X151976190Y-91957275D01*
X152261904Y-92957275D02*
X152261904Y-91957275D01*
X151690475Y-92052513D02*
X151642856Y-92004894D01*
X151642856Y-92004894D02*
X151547618Y-91957275D01*
X151547618Y-91957275D02*
X151309523Y-91957275D01*
X151309523Y-91957275D02*
X151214285Y-92004894D01*
X151214285Y-92004894D02*
X151166666Y-92052513D01*
X151166666Y-92052513D02*
X151119047Y-92147751D01*
X151119047Y-92147751D02*
X151119047Y-92242989D01*
X151119047Y-92242989D02*
X151166666Y-92385846D01*
X151166666Y-92385846D02*
X151738094Y-92957275D01*
X151738094Y-92957275D02*
X151119047Y-92957275D01*
X150166666Y-92957275D02*
X150738094Y-92957275D01*
X150452380Y-92957275D02*
X150452380Y-91957275D01*
X150452380Y-91957275D02*
X150547618Y-92100132D01*
X150547618Y-92100132D02*
X150642856Y-92195370D01*
X150642856Y-92195370D02*
X150738094Y-92242989D01*
X149214285Y-92957275D02*
X149785713Y-92957275D01*
X149499999Y-92957275D02*
X149499999Y-91957275D01*
X149499999Y-91957275D02*
X149595237Y-92100132D01*
X149595237Y-92100132D02*
X149690475Y-92195370D01*
X149690475Y-92195370D02*
X149785713Y-92242989D01*
X148738094Y-92957275D02*
X148547618Y-92957275D01*
X148547618Y-92957275D02*
X148452380Y-92909656D01*
X148452380Y-92909656D02*
X148404761Y-92862036D01*
X148404761Y-92862036D02*
X148309523Y-92719179D01*
X148309523Y-92719179D02*
X148261904Y-92528703D01*
X148261904Y-92528703D02*
X148261904Y-92147751D01*
X148261904Y-92147751D02*
X148309523Y-92052513D01*
X148309523Y-92052513D02*
X148357142Y-92004894D01*
X148357142Y-92004894D02*
X148452380Y-91957275D01*
X148452380Y-91957275D02*
X148642856Y-91957275D01*
X148642856Y-91957275D02*
X148738094Y-92004894D01*
X148738094Y-92004894D02*
X148785713Y-92052513D01*
X148785713Y-92052513D02*
X148833332Y-92147751D01*
X148833332Y-92147751D02*
X148833332Y-92385846D01*
X148833332Y-92385846D02*
X148785713Y-92481084D01*
X148785713Y-92481084D02*
X148738094Y-92528703D01*
X148738094Y-92528703D02*
X148642856Y-92576322D01*
X148642856Y-92576322D02*
X148452380Y-92576322D01*
X148452380Y-92576322D02*
X148357142Y-92528703D01*
X148357142Y-92528703D02*
X148309523Y-92481084D01*
X148309523Y-92481084D02*
X148261904Y-92385846D01*
X147880951Y-92671560D02*
X147404761Y-92671560D01*
X147976189Y-92957275D02*
X147642856Y-91957275D01*
X147642856Y-91957275D02*
X147309523Y-92957275D01*
X152642857Y-93614838D02*
X152738095Y-93567219D01*
X152738095Y-93567219D02*
X152880952Y-93567219D01*
X152880952Y-93567219D02*
X153023809Y-93614838D01*
X153023809Y-93614838D02*
X153119047Y-93710076D01*
X153119047Y-93710076D02*
X153166666Y-93805314D01*
X153166666Y-93805314D02*
X153214285Y-93995790D01*
X153214285Y-93995790D02*
X153214285Y-94138647D01*
X153214285Y-94138647D02*
X153166666Y-94329123D01*
X153166666Y-94329123D02*
X153119047Y-94424361D01*
X153119047Y-94424361D02*
X153023809Y-94519600D01*
X153023809Y-94519600D02*
X152880952Y-94567219D01*
X152880952Y-94567219D02*
X152785714Y-94567219D01*
X152785714Y-94567219D02*
X152642857Y-94519600D01*
X152642857Y-94519600D02*
X152595238Y-94471980D01*
X152595238Y-94471980D02*
X152595238Y-94138647D01*
X152595238Y-94138647D02*
X152785714Y-94138647D01*
X151738095Y-93900552D02*
X151738095Y-94567219D01*
X151976190Y-93519600D02*
X152214285Y-94233885D01*
X152214285Y-94233885D02*
X151595238Y-94233885D01*
X151214285Y-94043409D02*
X150880952Y-94043409D01*
X150738095Y-94567219D02*
X151214285Y-94567219D01*
X151214285Y-94567219D02*
X151214285Y-93567219D01*
X151214285Y-93567219D02*
X150738095Y-93567219D01*
X150309523Y-94567219D02*
X150309523Y-93567219D01*
X150309523Y-93567219D02*
X149976190Y-94281504D01*
X149976190Y-94281504D02*
X149642857Y-93567219D01*
X149642857Y-93567219D02*
X149642857Y-94567219D01*
X148690476Y-94567219D02*
X149166666Y-94567219D01*
X149166666Y-94567219D02*
X149166666Y-93567219D01*
D12*
X158969502Y-100248464D02*
X158505216Y-100248464D01*
X158505216Y-100248464D02*
X158755216Y-100534178D01*
X158755216Y-100534178D02*
X158648073Y-100534178D01*
X158648073Y-100534178D02*
X158576645Y-100569892D01*
X158576645Y-100569892D02*
X158540930Y-100605607D01*
X158540930Y-100605607D02*
X158505216Y-100677035D01*
X158505216Y-100677035D02*
X158505216Y-100855607D01*
X158505216Y-100855607D02*
X158540930Y-100927035D01*
X158540930Y-100927035D02*
X158576645Y-100962750D01*
X158576645Y-100962750D02*
X158648073Y-100998464D01*
X158648073Y-100998464D02*
X158862359Y-100998464D01*
X158862359Y-100998464D02*
X158933787Y-100962750D01*
X158933787Y-100962750D02*
X158969502Y-100927035D01*
X158290930Y-100248464D02*
X158040930Y-100998464D01*
X158040930Y-100998464D02*
X157790930Y-100248464D01*
X157612359Y-100248464D02*
X157148073Y-100248464D01*
X157148073Y-100248464D02*
X157398073Y-100534178D01*
X157398073Y-100534178D02*
X157290930Y-100534178D01*
X157290930Y-100534178D02*
X157219502Y-100569892D01*
X157219502Y-100569892D02*
X157183787Y-100605607D01*
X157183787Y-100605607D02*
X157148073Y-100677035D01*
X157148073Y-100677035D02*
X157148073Y-100855607D01*
X157148073Y-100855607D02*
X157183787Y-100927035D01*
X157183787Y-100927035D02*
X157219502Y-100962750D01*
X157219502Y-100962750D02*
X157290930Y-100998464D01*
X157290930Y-100998464D02*
X157505216Y-100998464D01*
X157505216Y-100998464D02*
X157576644Y-100962750D01*
X157576644Y-100962750D02*
X157612359Y-100927035D01*
D10*
X153394173Y-100928985D02*
X153429887Y-100964700D01*
X153429887Y-100964700D02*
X153537030Y-101000414D01*
X153537030Y-101000414D02*
X153608458Y-101000414D01*
X153608458Y-101000414D02*
X153715601Y-100964700D01*
X153715601Y-100964700D02*
X153787030Y-100893271D01*
X153787030Y-100893271D02*
X153822744Y-100821842D01*
X153822744Y-100821842D02*
X153858458Y-100678985D01*
X153858458Y-100678985D02*
X153858458Y-100571842D01*
X153858458Y-100571842D02*
X153822744Y-100428985D01*
X153822744Y-100428985D02*
X153787030Y-100357557D01*
X153787030Y-100357557D02*
X153715601Y-100286128D01*
X153715601Y-100286128D02*
X153608458Y-100250414D01*
X153608458Y-100250414D02*
X153537030Y-100250414D01*
X153537030Y-100250414D02*
X153429887Y-100286128D01*
X153429887Y-100286128D02*
X153394173Y-100321842D01*
X152715601Y-101000414D02*
X153072744Y-101000414D01*
X153072744Y-101000414D02*
X153072744Y-100250414D01*
X152465601Y-101000414D02*
X152465601Y-100250414D01*
X152037030Y-101000414D02*
X152358458Y-100571842D01*
X152037030Y-100250414D02*
X152465601Y-100678985D01*
G36*
X159443039Y-95119685D02*
G01*
X159488794Y-95172489D01*
X159500000Y-95224000D01*
X159500000Y-99776000D01*
X159480315Y-99843039D01*
X159427511Y-99888794D01*
X159376000Y-99900000D01*
X148124000Y-99900000D01*
X148056961Y-99880315D01*
X148011206Y-99827511D01*
X148000000Y-99776000D01*
X148000000Y-95224000D01*
X148019685Y-95156961D01*
X148072489Y-95111206D01*
X148124000Y-95100000D01*
X159376000Y-95100000D01*
X159443039Y-95119685D01*
G37*
M02*
